<svg xmlns="http://www.w3.org/2000/svg" xmlns:xlink="http://www.w3.org/1999/xlink" xmlns:sketch="http://www.bohemiancoding.com/sketch/ns" viewBox="0 0 100 125" version="1.1" x="0px" y="0px"><title>2</title><desc>Created with Sketch.</desc><g stroke="none" stroke-width="1" fill="none" fill-rule="evenodd" sketch:type="MSPage"><path d="M49.9994485,88.8480678 L49.9994485,88.8480678 C49.9994485,85.4505509 47.245033,82.6961355 43.8475162,82.6961355 L11.1519322,82.6961355 C7.75441542,82.6961355 5,85.4505509 5,88.8480678 L5,88.8480678 C5,92.2455846 7.75441542,95 11.1519322,95 L43.8475162,95 C47.245033,95 49.9994485,92.2455846 49.9994485,88.8480678 M83.9591734,62.9497236 L83.9591734,62.9497236 C83.9591734,59.5522068 81.204758,56.7977914 77.8072412,56.7977914 L11.1519322,56.7977914 C7.75441542,56.7977914 5,59.5522068 5,62.9497236 L5,62.9497236 C5,66.3472404 7.75441542,69.1016559 11.1519322,69.1016559 L77.8072412,69.1016559 C81.204758,69.1016559 83.9591734,66.3472404 83.9591734,62.9497236 M72.9194499,37.0513795 L72.9194499,37.0513795 C72.9194499,33.6538627 70.1650345,30.8994472 66.7675177,30.8994472 L11.1519322,30.8994472 C7.75441542,30.8994472 5,33.6538627 5,37.0513795 L5,37.0513795 C5,40.4488963 7.75441542,43.2033117 11.1519322,43.2033117 L66.7675177,43.2033117 C70.1650345,43.2033117 72.9194499,40.4488963 72.9194499,37.0513795 M88.8469647,17.3049676 L11.1519322,17.3049676 C7.75441542,17.3049676 5,14.5505522 5,11.1530353 L5,11.1530353 C5,7.75441542 7.75441542,5 11.1519322,5 L88.8469647,5 C92.2444815,5 94.9988969,7.75441542 94.9988969,11.1530353 L94.9988969,11.1530353 C94.9988969,14.5505522 92.2444815,17.3049676 88.8469647,17.3049676" fill="#000000" sketch:type="MSShapeGroup"/></g><text x="0" y="115" fill="#000000" font-size="5px" font-weight="bold" font-family="'Helvetica Neue', Helvetica, Arial-Unicode, Arial, Sans-serif">Created by Icon Island</text><text x="0" y="120" fill="#000000" font-size="5px" font-weight="bold" font-family="'Helvetica Neue', Helvetica, Arial-Unicode, Arial, Sans-serif">from the Noun Project</text></svg>